<svg xmlns="http://www.w3.org/2000/svg" width="151" height="36" viewBox="0 0 151 36" fill="none"><g clip-path="url(#clip0_1_73)"><path d="M29.9136 16.1316L23.5908 22.4818C22.559 23.5179 22.559 25.1979 23.5908 26.2341C24.6225 27.2703 26.2953 27.2703 27.327 26.2341L33.6498 19.884C34.6816 18.8478 34.6816 17.1678 33.6498 16.1316C32.6181 15.0954 30.9453 15.0954 29.9136 16.1316Z" fill="#11111F"></path><path d="M39.9024 9.85078C38.8707 8.81459 37.1979 8.81459 36.1662 9.85078C35.1345 10.887 35.1345 12.567 36.1662 13.6032C37.1979 14.6393 38.8707 14.6393 39.9024 13.6032C40.9342 12.567 40.9342 10.887 39.9024 9.85078Z" fill="#FF006B"></path><path d="M10.1828 19.9525L16.5057 13.6024C17.5374 12.5662 17.5374 10.8862 16.5057 9.84997C15.4739 8.81378 13.8012 8.81378 12.7694 9.84997L6.4466 16.2002C5.41487 17.2363 5.41487 18.9163 6.4466 19.9525C7.47833 20.9887 9.1511 20.9887 10.1828 19.9525Z" fill="#11111F"></path><path d="M0.774387 25.6506C1.80612 26.6868 3.47888 26.6868 4.51061 25.6506C5.54234 24.6144 5.54234 22.9344 4.51061 21.8982C3.47888 20.862 1.80612 20.862 0.774386 21.8982C-0.257343 22.9344 -0.257343 24.6144 0.774387 25.6506Z" fill="#FF006B"></path><path d="M24.4717 9.76486L12.4037 21.885C11.372 22.9212 11.372 24.6012 12.4037 25.6374C13.4354 26.6736 15.1082 26.6736 16.1399 25.6374L28.2079 13.5172C29.2396 12.4811 29.2396 10.8011 28.2079 9.76486C27.1762 8.72867 25.5034 8.72867 24.4717 9.76486Z" fill="#FF006B"></path></g><g clip-path="url(#clip1_1_73)"><path d="M147.738 5.55567C148.482 5.55567 149.107 5.2975 149.611 4.77927C150.115 4.26293 150.366 3.62889 150.366 2.87906C150.366 2.12923 150.107 1.53127 149.594 1.01303C149.078 0.496693 148.461 0.236626 147.738 0.236626C147.015 0.236626 146.364 0.4891 145.848 0.995947C145.333 1.50279 145.076 2.13113 145.076 2.87906C145.076 3.627 145.333 4.26103 145.848 4.77927C146.362 5.2975 146.992 5.55567 147.738 5.55567Z" fill="#FF006B"></path><path d="M145.537 9.27065V17.7029H145.529C145.529 18.9121 145.108 19.9429 144.268 20.8009C143.449 21.6362 142.457 22.0595 141.296 22.0823C142.061 20.7516 142.446 19.25 142.446 17.5776C142.446 15.0586 141.58 12.9268 139.845 11.1841C138.111 9.4415 135.991 8.56828 133.486 8.56828C130.981 8.56828 128.826 9.43391 127.093 11.1671C125.481 12.7768 124.62 14.7378 124.507 17.048C124.337 14.9902 123.516 13.2229 122.043 11.746C120.378 10.0774 118.341 9.24218 115.934 9.24218C115.749 9.24218 115.567 9.24977 115.386 9.25926H106.775V9.29153H102.373V1.30157C102.373 0.7131 101.899 0.236626 101.313 0.236626H98.9648C98.3795 0.236626 97.9056 0.7131 97.9056 1.30157V17.6877C97.9056 19.3924 98.3115 20.9167 99.1234 22.2607C97.9887 22.2513 97.0202 21.8412 96.2235 21.0306C95.4154 20.2087 95.0114 19.2178 95.0114 18.0579H95.0039C95.0039 17.9972 95.0076 17.9383 95.0076 17.8776C95.0076 17.5719 94.9906 17.2701 94.9604 16.974V10.309C94.9604 9.71865 94.4847 9.24028 93.8975 9.24028H91.783C91.1959 9.24028 90.7201 9.71865 90.7201 10.309V10.4134C89.3702 9.62753 87.79 9.20041 86.106 9.26306C81.6636 9.43011 78.0387 13.0692 77.8651 17.534C77.799 19.2235 78.22 20.8085 78.9941 22.1639H76.0602V18.1092C76.0602 15.6243 75.1974 13.521 73.4737 11.803C71.7481 10.0831 69.6487 9.22319 67.1717 9.22319C64.6947 9.22319 62.6161 10.1021 60.8697 11.858C59.1234 10.1021 57.0221 9.22319 54.5678 9.22319C52.1134 9.22319 49.9914 10.0831 48.2658 11.803C46.5383 13.5229 45.6755 15.6262 45.6755 18.1111V24.2805C45.6755 25.5239 46.678 26.5319 47.9146 26.5319C49.1513 26.5319 50.1538 25.5239 50.1538 24.2805V18.1775C50.1538 17.048 50.5578 15.9413 51.3356 15.125C52.2229 14.193 53.3047 13.726 54.5829 13.726C55.7817 13.726 56.8125 14.1588 57.6791 15.0225C58.5438 15.8881 58.978 16.9189 58.978 18.1148V24.2786C58.978 25.522 59.9805 26.53 61.2171 26.53C62.4537 26.53 63.4562 25.522 63.4562 24.2786V15.8521V15.8198C64.319 14.4226 65.567 13.7241 67.2038 13.7241C68.4197 13.7241 69.4543 14.1512 70.3057 15.0054C71.1572 15.8597 71.582 16.8961 71.582 18.1148V23.3883C71.582 25.1234 72.9809 26.53 74.7065 26.53H86.4326V26.4997C88.9643 26.4997 91.2374 25.3967 92.8082 23.6427C92.9328 23.7851 93.0612 23.9256 93.1971 24.0641C94.8207 25.7081 96.8068 26.53 99.1555 26.53H105.516V26.4826H105.527C106.19 26.568 106.775 26.0498 106.775 25.3797V23.0998C106.775 22.5512 106.386 22.088 105.85 21.9817C105.025 21.8165 104.296 21.4179 103.662 20.7896C102.801 19.9353 102.371 18.8988 102.371 17.6782V13.1185H106.773V13.1337H108.667C107.751 14.5138 107.291 16.0951 107.291 17.8814C107.291 20.3188 108.123 22.3746 109.788 24.0451C111.486 25.7498 113.579 26.5851 116.071 26.5509V26.5471H118.337C119.534 26.5471 120.559 25.6056 120.582 24.402C120.604 23.1985 119.623 22.1753 118.409 22.1753H116.092C115.146 22.1753 114.134 21.9001 113.383 21.3496C112.63 20.799 112.114 20.0701 111.835 19.1608H124.441C124.46 19.0317 124.475 18.9045 124.49 18.7755V33.4873C124.49 34.7459 125.504 35.7653 126.755 35.7653C128.007 35.7653 129.021 34.7459 129.021 33.4873V25.4062C130.386 26.194 131.874 26.587 133.484 26.587C133.831 26.587 134.169 26.568 134.502 26.5357H141.542V26.5281C143.843 26.4541 145.803 25.6018 147.417 23.9654C149.075 22.2854 149.919 20.2447 149.951 17.8453H149.973V9.27255H145.539L145.537 9.27065ZM86.4307 22.1905V22.1658H85.9719C83.7007 21.9228 81.96 19.8955 82.1601 17.5055C82.3357 15.3984 84.0594 13.707 86.1588 13.576C88.6509 13.4203 90.7201 15.406 90.7201 17.8795C90.7201 20.3529 88.8001 22.1905 86.4326 22.1905H86.4307ZM112.16 15.8862C112.954 14.3733 114.212 13.6178 115.932 13.6178C117.652 13.6178 118.875 14.3752 119.672 15.8862H112.16ZM136.622 20.7326C135.761 21.5982 134.715 22.031 133.484 22.031C132.253 22.031 131.201 21.5982 130.329 20.7326C129.457 19.867 129.021 18.8153 129.021 17.5776C129.021 16.3399 129.457 15.2883 130.329 14.4226C131.201 13.557 132.253 13.1242 133.484 13.1242C134.715 13.1242 135.761 13.557 136.622 14.4226C137.483 15.2883 137.913 16.3399 137.913 17.5776C137.913 18.8153 137.483 19.867 136.622 20.7326Z" fill="#11111F"></path></g><defs><clipPath id="clip0_1_73"><rect width="40.6756" height="18.0208" fill="white" transform="translate(0 8.98959)"></rect></clipPath><clipPath id="clip1_1_73"><rect width="104.691" height="35.5267" fill="white" transform="translate(45.6755 0.236626)"></rect></clipPath></defs></svg>