<?xml version="1.0" encoding="UTF-8" standalone="no"?>
<!-- Created with Inkscape (http://www.inkscape.org/) -->

<svg
   version="1.1"
   id="svg2"
   xml:space="preserve"
   width="3233.012"
   height="617"
   viewBox="0 0 3233.0121 617"
   sodipodi:docname="ruhr_2.svg"
   inkscape:version="1.1.2 (0a00cf5339, 2022-02-04)"
   inkscape:export-filename="/home/marc/workshop-hexagonal-sige-2025/assets/ruhr.png"
   inkscape:export-xdpi="96"
   inkscape:export-ydpi="96"
   xmlns:inkscape="http://www.inkscape.org/namespaces/inkscape"
   xmlns:sodipodi="http://sodipodi.sourceforge.net/DTD/sodipodi-0.dtd"
   xmlns="http://www.w3.org/2000/svg"
   xmlns:svg="http://www.w3.org/2000/svg"><defs
     id="defs6" /><sodipodi:namedview
     id="namedview4"
     pagecolor="#ffffff"
     bordercolor="#cccccc"
     borderopacity="1"
     inkscape:pageshadow="0"
     inkscape:pageopacity="1"
     inkscape:pagecheckerboard="0"
     showgrid="false"
     inkscape:zoom="0.091381665"
     inkscape:cx="2544.2741"
     inkscape:cy="2423.8998"
     inkscape:window-width="1558"
     inkscape:window-height="932"
     inkscape:window-x="2095"
     inkscape:window-y="120"
     inkscape:window-maximized="0"
     inkscape:current-layer="g8" /><g
     id="g8"
     inkscape:groupmode="layer"
     inkscape:label="ink_ext_XXXXXX"
     transform="matrix(1.3333333,0,0,-1.3333333,0,30.92)"><g
       id="g10"
       transform="scale(0.1)"><path
         d="m 21571.042,-1814.3965 v 1702.39185 h 1179.334 c 541.176,0 968.61,-248.65793 968.61,-835.07242 0,-599.56473 -490.691,-867.31943 -1026.28,-867.31943 z m 0,-2160.6722 v 1823.155 h 1198.291 c 592.061,0 1070.579,-274.3119 1070.579,-899.0717 0,-636.8405 -464.949,-924.0833 -1058.606,-924.0833 z m -401.692,-344.1435 h 1708.338 c 694.63,0 1369.903,395.2002 1369.903,1256.1441 0,541.3564 -337.637,1012.8645 -975.196,1108.7478 v 6.3856 c 529.404,127.0527 841.697,567.3176 841.697,1064.63348 0,732.7038 -503.861,1115.19922 -1268.93,1115.19922 H 21169.35 v -4551.1102"
         style="fill:#1d385f;fill-opacity:1;fill-rule:nonzero;stroke:none;stroke-width:19.9548"
         id="path12" /><path
         d="m 18503.495,-4395.6021 c 1064.774,0 1842.315,611.5078 1842.315,1721.1096 V 225.91153 h -981.381 V -2642.9238 c 0,-592.8 -293.477,-898.3594 -841.219,-898.3594 -587.192,0 -854.548,363.2409 -854.548,898.3594 V 225.91153 h -993.854 V -2731.785 c 0,-1115.8377 726.878,-1663.8171 1828.687,-1663.8171"
         style="fill:#1d385f;fill-opacity:1;fill-rule:nonzero;stroke:none;stroke-width:19.9548"
         id="path14" /><path
         d="m 15073.348,-2796.8718 c 635.284,360.5131 880.051,895.9508 880.051,1437.6863 0,892.12341 -638.018,1587.1923 -1581.206,1587.1923 h -2010.675 v -4544.4909 h 987.987 v 3741.46604 h 777.004 c 553.349,0 860.314,-330.11382 860.314,-784.16744 0,-391.2956 -240.855,-787.6796 -853.929,-787.6796 h -622.034 l 1562.488,-2169.619 h 1090.117 l -1090.117,1519.6123"
         style="fill:#1d385f;fill-opacity:1;fill-rule:nonzero;stroke:none;stroke-width:19.9548"
         id="path16" /><path
         d="M 17.928235,-4311.1835 H 441.73551 c 166.96659,0 326.1388,97.436 326.1388,298.933 0,125.8873 -74.9865,235.7949 -217.86754,261.1296 v 1.5585 c 120.27413,35.0768 186.29691,131.7342 186.29691,244.7588 0,174.9965 -119.96284,265.0268 -306.49321,265.0268 H 17.928235 Z m 121.600175,103.2821 v 395.5908 h 275.16023 c 132.279,0 231.58454,-58.851 231.58454,-194.0932 0,-136.8008 -99.30554,-201.4976 -230.10389,-201.4976 z m 0,497.313 v 367.1401 h 264.71384 c 121.83461,0 213.50142,-52.6171 213.50142,-179.6719 0,-127.4479 -100.78618,-187.4682 -220.90667,-187.4682 z m 1234.32019,-620.472 c 220.9067,0 405.8007,145.3738 405.8007,387.7959 v 353.4969 c 0,234.2366 -180.3742,370.6463 -408.8419,370.6463 -220.9844,0 -407.28134,-143.815 -407.28134,-387.4044 v -365.5796 c 0,-234.237 186.29694,-358.9551 410.32254,-358.9551 m 0,108.3488 c -168.6049,0 -290.2819,100.5534 -290.2819,264.6366 v 353.1078 c 0,177.3332 126.2766,277.4967 282.7988,277.4967 172.7336,0 292.8521,-95.4862 292.8521,-258.3999 v -366.3579 c 0,-175.7747 -130.6408,-270.4833 -285.369,-270.4833 m 1032.6717,-108.3488 c 213.4176,0 378.6641,118.4822 378.6641,321.9287 v 38.5849 h -115.5189 v -22.605 c 0,-144.2061 -106.8584,-229.5598 -263.1452,-229.5598 -168.2995,0 -290.2839,102.1139 -290.2839,264.6366 v 359.3436 c 0,169.5389 126.4343,268.9243 282.5613,268.9243 157.9232,0 270.8678,-84.1858 270.8678,-228.781 v -37.4153 h 115.5189 v 52.615 c 0,197.9904 -168.1998,321.5393 -381.8568,321.5393 -234.5498,0 -407.1398,-150.0509 -407.1398,-378.8318 v -371.4244 c 0,-234.237 181.6295,-358.9551 410.3325,-358.9551 m 605.5713,19.8769 h 121.7647 v 500.4314 h 542.7532 v -500.4314 h 121.6849 v 1071.4067 h -121.6849 v -464.5758 h -542.7532 v 464.5758 h -121.7647 z m 1440.2644,-18.3179 c 237.4432,0 399.6367,139.5285 398.16,375.7127 v 714.0119 h -120.1883 v -705.0482 c 4.5896,-175.7727 -100.4729,-275.5482 -275.0783,-275.5482 -161.0559,0 -276.6547,89.2513 -276.6547,279.8365 v 700.7599 h -121.5851 v -721.4172 c 0,-259.1792 187.6957,-368.3074 395.3464,-368.3074 m 656.7156,18.3179 h 117.1551 v 857.8275 h 4.5298 l 314.4493,-609.9512 h 96.1027 l 314.2896,611.5097 h 2.9733 v -859.386 h 117.1551 v 1071.4067 h -150.3002 l -329.3156,-656.7195 h -1.4168 l -336.8985,656.7195 h -148.7238 v -1071.4067"
         style="fill:#1d385f;fill-opacity:1;fill-rule:nonzero;stroke:none;stroke-width:19.9548"
         id="path18" /><path
         d="m 419.28625,-2593.9704 c 249.59183,0 419.20843,146.1535 419.20843,401.8277 v 686.7277 H 638.7901 v -678.1471 c 0,-152.7947 -73.6615,-229.9583 -219.50385,-229.9583 -156.28673,0 -219.58165,97.817 -219.58165,229.9583 v 678.1471 H 0 v -702.3125 c 0,-256.8494 169.69462,-386.2429 419.28625,-386.2429 m 658.35585,17.1471 h 192.2994 v 731.9356 h 2.8854 l 464.7296,-731.9356 h 195.2626 v 1071.4083 h -192.1437 v -730.7682 h -3.1189 l -466.29,730.7682 h -193.6244 z m 1101.8913,0 h 199.6288 v 1071.4083 h -199.6288 z m 690.0004,-4.6753 h 195.099 l 354.8978,1076.0836 h -198.5312 l -241.8734,-788.8369 h -3.0332 l -241.9531,788.8369 h -216.311 z m 688.364,4.6753 h 749.9448 v 175.7747 h -550.0167 v 282.5594 h 482.3497 v 175.7827 h -482.3497 v 261.5089 h 544.0901 v 175.7826 h -744.0182 z m 969.6881,0 h 199.6288 v 401.0435 h 172.9691 l 251.0724,-401.0435 h 217.8676 l -265.8991,423.2534 c 144.294,51.4636 211.8013,183.9641 211.8013,311.4161 0,219.4239 -162.2133,336.7388 -363.7977,336.7388 h -423.6424 z m 199.6288,569.0239 v 334.005 h 197.0546 c 111.3084,0 195.3385,-40.5284 195.3385,-166.803 0,-111.0689 -76.4672,-167.202 -192.2256,-167.202 z m 1166.5631,-586.171 c 236.1263,0 411.8889,130.9539 411.8889,327.7751 0,190.9683 -117.2349,267.3556 -245.066,297.7669 l -183.3455,44.8187 c -84.4093,22.9881 -156.2868,57.6895 -156.2868,132.5204 0,96.2625 84.1897,135.2344 171.1731,135.2344 103.9849,0 183.6649,-32.746 230.4191,-122.7626 l 163.5503,71.6979 c -69.0637,160.5771 -198.3915,219.8232 -377.2073,219.8232 -207.7304,0 -383.4332,-117.714 -383.4332,-318.8194 0,-189.4118 114.3614,-254.1056 257.0789,-290.3437 l 180.2924,-43.2622 c 82.8727,-24.5644 147.2471,-60.4233 147.2471,-140.3228 0,-98.9962 -101.8696,-141.0811 -210.2248,-141.0811 -120.2681,0 -218.2466,58.847 -258.5555,162.1336 l -180.2924,-70.5406 c 55.4945,-181.6235 235.8668,-264.6378 432.7617,-264.6378 m 613.3137,17.1471 h 199.9281 v 1071.4083 h -199.9281 z m 686.8874,0 h 198.2119 v 899.916 h 308.4428 v 171.4923 H 6885.995 v -171.4923 h 307.9839 z m 461.6165,0 h 196.895 l 81.1366,227.9947 h 408.6962 l 78.1832,-227.9947 h 211.941 l -395.2865,1071.4083 h -183.4055 z m 333.4463,399.4871 147.4068,428.711 h 2.9733 l 146.0698,-428.711 z m -85.4268,768.024 h 178.6561 v 196.835 h -178.6561 z m 300.7401,0 h 178.6562 v 196.835 H 8204.355 Z m 703.1707,-1167.5111 h 198.4513 v 899.916 h 308.2033 v 171.4923 H 8599.462 v -171.4923 h 308.0637 v -899.916"
         style="fill:#1d385f;fill-opacity:1;fill-rule:nonzero;stroke:none;stroke-width:19.9548"
         id="path20" /><path
         d="M 7.4051416,-842.61319 H 207.10985 v 401.4326 h 173.04686 l 251.22812,-401.4326 h 217.55624 l -265.80519,423.64241 c 144.28187,51.06456 211.86313,183.18592 211.86313,311.01697 0,219.82312 -162.28917,337.13794 -363.78572,337.13794 H 7.4051416 Z M 207.10985,-273.20029 V 60.425593 h 197.1324 c 111.07693,0 195.49611,-40.149248 195.49611,-166.822913 0,-111.06894 -76.54497,-166.80297 -192.45498,-166.80297 z M 1427.7887,-859.3753 c 249.6696,0 419.2083,145.77049 419.2083,401.43261 v 687.12682 h -199.7823 v -678.16708 c 0,-153.55291 -73.5059,-230.33934 -219.426,-230.33934 -156.3666,0 -219.5817,97.83884 -219.5817,230.33934 v 678.16708 h -199.7824 v -702.33245 c 0,-257.21859 169.8501,-386.22698 419.3641,-386.22698 m 658.5154,16.76211 h 199.7087 v 458.34397 h 428.6311 v -458.34397 h 199.8682 V 229.18413 h -199.8682 v -437.69065 h -428.6311 v 437.69065 h -199.7087 z m 1074.9103,0 h 199.5491 v 401.4326 h 173.0488 l 251.0724,-401.4326 h 217.7878 l -265.8791,423.64241 c 144.1941,51.06456 211.7015,183.18592 211.7015,311.01697 0,219.82312 -162.0537,337.13794 -363.6381,337.13794 h -423.6424 z m 199.5491,569.4129 V 60.425593 h 197.1343 c 111.1488,0 195.4182,-40.149248 195.4182,-166.822913 0,-111.06894 -76.8662,-166.80297 -192.4649,-166.80297 h -200.0876"
         style="fill:#1d385f;fill-opacity:1;fill-rule:nonzero;stroke:none;stroke-width:19.9548"
         id="path22" /></g></g></svg>
